<svg id="svg" xmlns="http://www.w3.org/2000/svg" xmlns:xlink="http://www.w3.org/1999/xlink" width="400" height="400" viewBox="0, 0, 400,400"><g id="svgg"><path id="path0" d="M200.045 70.570 C 200.003 70.997,193.954 74.486,192.881 74.704 C 192.607 74.759,192.295 74.914,192.188 75.048 C 191.711 75.644,175.391 83.307,175.391 82.935 C 175.391 82.815,175.159 82.909,174.876 83.144 C 174.261 83.654,166.005 87.104,165.392 87.107 C 165.156 87.108,164.402 87.390,163.715 87.732 C 163.028 88.075,162.166 88.413,161.799 88.484 C 161.433 88.554,161.089 88.648,161.035 88.691 C 160.981 88.734,160.806 88.807,160.645 88.852 C 160.483 88.898,160.088 89.050,159.766 89.191 C 158.221 89.867,153.516 91.334,153.516 91.140 C 153.516 91.019,153.296 91.101,153.027 91.322 C 152.561 91.706,145.370 93.812,144.134 93.927 C 143.808 93.957,143.368 94.083,143.157 94.206 C 142.754 94.441,137.350 95.672,135.840 95.873 C 135.356 95.938,134.697 96.094,134.375 96.221 C 133.876 96.418,130.669 97.049,127.930 97.491 C 127.500 97.561,126.533 97.732,125.781 97.872 C 125.029 98.012,123.887 98.191,123.242 98.270 C 122.598 98.349,119.601 98.762,116.583 99.188 C 113.566 99.615,110.753 99.967,110.333 99.971 C 109.914 99.976,108.252 100.108,106.641 100.265 C 105.029 100.423,102.129 100.559,100.195 100.569 L 96.680 100.586 96.662 102.344 C 96.643 104.217,96.108 116.721,95.977 118.359 C 95.934 118.896,95.723 119.465,95.508 119.623 C 95.273 119.795,95.333 119.912,95.658 119.916 C 96.109 119.921,96.146 120.943,95.882 126.074 C 95.383 135.759,95.369 136.691,95.340 162.891 C 95.311 188.421,95.335 189.433,96.110 194.970 C 96.362 196.770,96.639 198.945,96.724 199.805 C 96.947 202.048,97.156 203.224,97.467 204.004 C 97.628 204.408,97.563 204.688,97.307 204.688 C 97.070 204.688,96.875 204.951,96.875 205.273 C 96.875 205.596,97.088 205.815,97.347 205.762 C 97.607 205.708,97.852 206.016,97.891 206.445 C 97.930 206.875,98.087 207.534,98.241 207.910 C 98.679 208.979,98.140 208.712,97.453 207.520 L 96.834 206.445 97.069 207.565 C 97.198 208.181,97.404 209.189,97.527 209.805 C 97.651 210.421,97.889 210.840,98.058 210.735 C 98.226 210.631,98.269 210.151,98.152 209.668 C 98.010 209.079,98.070 208.918,98.334 209.180 C 99.064 209.905,99.337 211.848,98.673 211.593 C 98.275 211.440,98.156 211.549,98.303 211.932 C 98.422 212.242,98.678 212.397,98.872 212.278 C 99.259 212.039,99.470 212.483,99.814 214.258 C 100.044 215.447,100.122 215.749,100.464 216.797 C 100.569 217.119,101.050 218.613,101.533 220.117 C 102.015 221.621,102.512 223.115,102.636 223.438 C 102.761 223.760,102.877 224.141,102.896 224.284 C 102.915 224.427,103.062 224.676,103.223 224.837 C 103.384 224.998,103.516 225.389,103.516 225.706 C 103.516 226.273,103.786 226.913,106.235 232.131 C 107.004 233.771,107.391 235.102,107.256 235.647 C 107.136 236.129,107.146 236.285,107.277 235.993 C 107.511 235.472,109.176 238.127,110.348 240.889 C 110.845 242.062,110.830 242.122,110.072 241.976 C 109.630 241.891,109.396 241.948,109.550 242.102 C 109.820 242.373,109.967 242.415,111.035 242.535 C 111.375 242.573,111.345 242.705,110.938 242.969 C 110.432 243.296,110.441 243.348,111.008 243.353 C 111.419 243.357,112.551 244.826,114.035 247.284 C 116.456 251.290,116.698 251.789,116.020 251.370 C 115.794 251.230,115.736 251.397,115.879 251.770 C 116.043 252.198,116.214 252.264,116.396 251.970 C 116.719 251.448,119.991 256.336,119.833 257.103 C 119.774 257.386,119.943 257.574,120.207 257.522 C 120.472 257.470,120.997 257.909,121.374 258.499 C 121.752 259.088,122.282 259.803,122.554 260.086 C 123.124 260.684,123.222 261.482,122.683 261.149 C 122.483 261.026,122.216 261.092,122.089 261.297 C 121.957 261.511,122.272 261.595,122.827 261.494 C 123.524 261.368,123.918 261.548,124.233 262.136 C 124.681 262.973,125.515 264.059,126.575 265.185 C 128.282 266.998,130.015 269.468,129.770 269.739 C 129.617 269.908,129.686 269.936,129.924 269.801 C 130.525 269.458,132.187 271.307,131.817 271.906 C 131.626 272.214,131.682 272.286,131.970 272.108 C 132.243 271.939,134.317 273.725,137.232 276.637 C 141.713 281.116,145.035 284.146,146.882 285.439 C 147.612 285.951,148.028 286.995,147.331 286.564 C 147.152 286.453,147.005 286.589,147.005 286.866 C 147.005 287.143,147.232 287.370,147.509 287.370 C 147.786 287.370,147.922 287.223,147.811 287.044 C 147.701 286.865,147.763 286.719,147.950 286.719 C 148.437 286.719,150.000 288.237,150.000 288.710 C 150.000 288.929,150.153 289.014,150.340 288.898 C 150.527 288.783,151.040 288.992,151.479 289.364 C 153.105 290.738,153.734 291.226,154.688 291.849 C 155.225 292.201,156.086 292.860,156.603 293.314 C 157.119 293.769,157.709 294.141,157.914 294.141 C 158.119 294.141,158.182 294.413,158.054 294.747 C 157.921 295.094,157.986 295.251,158.207 295.115 C 158.632 294.852,160.938 296.080,160.938 296.569 C 160.938 296.737,161.201 296.875,161.523 296.875 C 161.846 296.875,162.109 297.023,162.109 297.203 C 162.109 297.383,162.559 297.736,163.108 297.986 C 163.657 298.236,163.996 298.620,163.860 298.839 C 163.725 299.059,163.759 299.213,163.936 299.182 C 164.768 299.038,165.255 299.260,165.002 299.670 C 164.844 299.925,164.893 300.016,165.115 299.878 C 165.331 299.745,166.702 300.421,168.163 301.381 C 169.624 302.340,170.908 303.125,171.017 303.125 C 171.436 303.125,173.828 305.137,173.828 305.489 C 173.828 305.693,173.564 305.859,173.242 305.859 C 172.920 305.859,172.656 305.606,172.656 305.296 C 172.656 304.987,172.516 304.647,172.344 304.540 C 172.172 304.434,172.031 304.742,172.031 305.224 C 172.031 305.942,172.270 306.117,173.352 306.190 C 174.183 306.246,174.580 306.129,174.423 305.874 C 173.992 305.177,174.832 305.429,176.330 306.445 C 177.121 306.982,177.956 307.422,178.184 307.422 C 178.412 307.422,178.510 307.654,178.402 307.937 C 178.274 308.269,178.503 308.442,179.043 308.425 C 179.543 308.409,179.839 308.608,179.775 308.916 C 179.716 309.200,179.849 309.321,180.071 309.184 C 180.293 309.047,180.957 309.254,181.547 309.643 C 182.138 310.033,182.971 310.555,183.400 310.803 C 183.829 311.052,184.142 311.430,184.095 311.642 C 184.049 311.855,184.318 311.949,184.693 311.851 C 185.068 311.753,185.792 312.035,186.302 312.477 C 186.812 312.919,187.422 313.281,187.657 313.281 C 187.893 313.281,189.467 314.166,191.155 315.248 C 192.843 316.329,194.915 317.567,195.759 317.997 C 196.603 318.428,197.199 318.933,197.084 319.119 C 196.968 319.306,197.206 319.372,197.612 319.265 C 198.017 319.159,198.467 319.264,198.612 319.497 C 199.029 320.173,200.887 319.974,201.953 319.141 C 202.490 318.720,203.086 318.373,203.278 318.368 C 203.470 318.363,204.740 317.656,206.101 316.797 C 207.461 315.937,208.755 315.234,208.975 315.234 C 209.195 315.234,209.375 315.037,209.375 314.796 C 209.375 314.496,209.563 314.513,209.970 314.851 C 210.462 315.260,210.526 315.243,210.338 314.755 C 210.200 314.395,210.387 314.076,210.818 313.935 C 211.206 313.809,212.227 313.260,213.086 312.716 C 213.945 312.172,215.000 311.547,215.430 311.326 C 215.859 311.106,216.738 310.582,217.383 310.161 C 218.027 309.740,219.346 308.950,220.313 308.405 C 222.560 307.139,223.346 306.650,224.876 305.567 C 225.560 305.083,226.242 304.688,226.391 304.688 C 226.541 304.687,227.693 303.984,228.952 303.125 C 230.211 302.266,231.382 301.562,231.553 301.562 C 231.725 301.562,232.474 301.042,233.218 300.407 C 233.962 299.771,234.790 299.243,235.059 299.235 C 235.327 299.226,235.547 299.043,235.547 298.828 C 235.547 298.613,235.796 298.438,236.100 298.438 C 236.405 298.437,236.712 298.306,236.784 298.145 C 236.855 297.983,237.705 297.324,238.672 296.680 C 239.639 296.035,240.605 295.371,240.820 295.204 C 241.035 295.037,242.266 294.104,243.555 293.130 C 244.844 292.157,246.338 291.003,246.875 290.566 C 247.412 290.129,248.813 289.040,249.987 288.147 C 251.162 287.254,252.409 286.260,252.758 285.938 C 253.107 285.615,254.164 284.736,255.106 283.984 C 259.565 280.424,268.689 271.288,273.698 265.365 C 275.141 263.659,275.600 263.064,276.255 262.047 C 276.623 261.476,277.327 260.569,277.818 260.031 C 278.309 259.493,278.975 258.665,279.297 258.190 C 279.619 257.715,280.083 257.116,280.328 256.859 C 280.787 256.377,284.204 251.196,284.980 249.805 C 286.977 246.225,289.704 242.178,289.952 242.426 C 290.064 242.538,290.131 242.399,290.101 242.116 C 290.070 241.833,291.120 239.404,292.434 236.719 C 295.119 231.232,295.694 229.941,296.695 227.148 C 297.080 226.074,297.541 225.028,297.721 224.824 C 297.900 224.620,298.047 224.126,298.047 223.727 C 298.047 223.328,298.179 223.082,298.340 223.182 C 298.501 223.281,298.653 222.984,298.678 222.521 C 298.703 222.058,299.342 219.570,300.099 216.992 C 300.855 214.414,301.609 211.777,301.775 211.133 C 301.940 210.488,302.126 209.785,302.189 209.570 C 302.874 207.217,304.197 199.444,304.483 196.094 C 304.602 194.697,304.786 192.764,304.892 191.797 C 304.998 190.830,305.174 188.378,305.284 186.347 C 305.407 184.048,305.664 182.537,305.964 182.343 C 306.343 182.098,306.343 181.965,305.968 181.722 C 305.500 181.419,305.432 157.916,305.888 154.233 C 305.985 153.446,305.931 152.886,305.767 152.987 C 305.603 153.088,305.469 152.799,305.469 152.344 C 305.469 151.889,305.615 151.607,305.794 151.718 C 305.973 151.828,306.120 151.671,306.120 151.367 C 306.120 151.064,305.973 150.906,305.794 151.017 C 305.488 151.206,305.380 149.597,305.229 142.578 C 305.195 140.967,305.015 134.727,304.829 128.711 C 304.644 122.695,304.492 113.812,304.492 108.971 C 304.492 100.994,304.431 100.168,303.837 100.167 C 303.477 100.167,303.263 100.298,303.362 100.457 C 303.460 100.617,302.700 100.662,301.673 100.558 C 299.379 100.325,292.043 99.676,288.867 99.426 C 287.578 99.324,285.908 99.123,285.156 98.980 C 284.404 98.837,283.438 98.680,283.008 98.633 C 278.615 98.146,277.435 97.983,276.035 97.671 C 274.517 97.332,272.868 97.012,270.800 96.655 C 269.939 96.507,268.854 96.295,267.089 95.932 C 266.606 95.833,265.684 95.664,265.039 95.557 C 262.621 95.156,256.721 93.689,253.516 92.691 C 251.689 92.122,250.070 91.687,249.916 91.723 C 249.762 91.758,249.147 91.587,248.549 91.342 C 247.950 91.096,247.285 90.855,247.070 90.805 C 244.507 90.207,242.122 89.272,241.813 88.743 C 241.603 88.382,241.425 88.298,241.418 88.557 C 241.407 88.996,239.782 88.609,237.500 87.625 C 237.178 87.486,236.782 87.335,236.621 87.290 C 236.460 87.244,236.284 87.172,236.230 87.129 C 236.177 87.086,235.724 86.976,235.224 86.883 C 234.725 86.790,233.934 86.504,233.467 86.248 C 232.999 85.991,232.321 85.731,231.959 85.670 C 230.252 85.383,226.909 83.590,227.195 83.114 C 227.423 82.734,227.361 82.719,226.930 83.049 C 226.506 83.375,225.944 83.293,224.650 82.717 C 223.334 82.130,223.060 81.864,223.478 81.576 C 223.870 81.305,223.775 81.269,223.142 81.447 C 222.583 81.604,221.470 81.334,220.106 80.709 C 218.922 80.167,217.912 79.750,217.863 79.783 C 217.814 79.817,216.191 79.040,214.258 78.057 C 212.324 77.074,208.418 75.153,205.578 73.787 C 202.737 72.422,200.341 71.037,200.252 70.711 C 200.163 70.384,200.070 70.321,200.045 70.570 M201.208 83.223 C 201.630 83.448,201.855 83.827,201.708 84.064 C 201.556 84.312,201.619 84.386,201.858 84.239 C 202.447 83.874,203.562 84.375,203.258 84.867 C 203.112 85.103,203.191 85.161,203.444 85.005 C 204.084 84.609,206.333 85.869,206.010 86.442 C 205.807 86.804,205.865 86.803,206.259 86.438 C 206.809 85.928,211.503 88.073,211.136 88.667 C 211.039 88.824,211.394 88.905,211.926 88.847 C 212.758 88.755,212.869 88.874,212.721 89.691 C 212.625 90.223,212.710 90.541,212.915 90.415 C 213.116 90.290,213.281 89.932,213.281 89.619 C 213.281 89.176,213.715 89.269,215.232 90.038 C 216.304 90.581,217.273 91.020,217.384 91.013 C 218.158 90.963,219.863 92.277,219.671 92.777 C 219.548 93.097,219.628 93.359,219.848 93.359 C 220.068 93.359,220.571 93.461,220.964 93.584 C 221.632 93.794,221.635 93.780,220.996 93.369 C 219.673 92.519,220.332 92.240,221.973 92.955 C 224.367 93.999,226.532 94.879,226.863 94.943 C 227.633 95.093,228.514 95.781,228.325 96.086 C 228.208 96.276,228.318 96.558,228.570 96.713 C 228.845 96.883,228.923 96.827,228.765 96.572 C 228.323 95.857,229.043 95.745,230.403 96.317 C 231.114 96.616,231.586 97.037,231.453 97.254 C 231.309 97.487,231.467 97.548,231.842 97.405 C 232.190 97.271,232.858 97.334,233.327 97.545 C 233.796 97.755,236.289 98.639,238.867 99.508 C 242.082 100.592,243.515 101.255,243.429 101.618 C 243.331 102.032,243.409 102.045,243.781 101.679 C 244.152 101.314,244.548 101.332,245.567 101.757 C 246.286 102.058,246.875 102.215,246.875 102.105 C 246.875 101.996,247.095 102.044,247.363 102.212 C 247.632 102.379,248.203 102.568,248.633 102.630 C 249.063 102.692,249.678 102.856,250.000 102.993 C 250.784 103.327,251.157 103.433,252.539 103.709 C 253.184 103.838,254.414 104.140,255.273 104.381 C 256.133 104.622,257.072 104.864,257.360 104.919 C 258.061 105.053,258.452 105.469,257.878 105.469 C 257.101 105.469,257.377 106.080,258.181 106.141 C 258.717 106.181,258.872 106.020,258.708 105.593 C 258.512 105.083,258.609 105.059,259.316 105.437 C 259.778 105.684,260.156 105.811,260.156 105.719 C 260.156 105.627,260.815 105.714,261.621 105.914 C 263.698 106.429,264.416 106.567,266.406 106.835 C 267.373 106.965,268.865 107.257,269.723 107.483 C 270.580 107.708,271.810 107.972,272.457 108.068 C 273.104 108.164,274.072 108.309,274.609 108.390 C 275.146 108.471,276.641 108.641,277.930 108.769 C 279.219 108.896,280.713 109.109,281.250 109.241 C 282.388 109.520,282.857 109.579,286.523 109.911 C 294.371 110.621,293.738 110.082,293.681 116.016 C 293.657 118.486,293.753 124.111,293.895 128.516 C 294.466 146.275,294.514 151.172,294.118 151.172 C 293.854 151.172,293.857 151.423,294.127 151.927 C 294.559 152.735,294.811 169.022,294.531 178.125 L 294.370 183.398 294.141 177.930 L 293.912 172.461 293.831 177.754 C 293.773 181.548,293.888 183.193,294.238 183.564 C 294.626 183.976,294.627 184.119,294.241 184.260 C 293.902 184.384,293.869 184.648,294.130 185.136 C 294.336 185.521,294.416 185.922,294.309 186.030 C 294.202 186.137,294.035 187.874,293.938 189.890 C 293.739 194.035,293.495 196.618,293.166 198.047 C 293.042 198.584,292.874 199.463,292.791 200.000 C 292.709 200.537,292.524 201.592,292.381 202.344 C 292.237 203.096,292.069 204.063,292.007 204.492 C 291.756 206.232,291.297 207.422,290.876 207.428 C 290.623 207.431,290.673 207.588,290.991 207.789 C 291.427 208.065,291.449 208.266,291.092 208.698 C 290.839 209.002,290.736 209.356,290.863 209.483 C 290.990 209.610,290.949 209.945,290.772 210.228 C 290.594 210.511,290.393 211.156,290.323 211.661 C 290.254 212.167,289.678 214.002,289.044 215.740 C 288.410 217.478,287.891 219.217,287.891 219.606 C 287.891 219.995,287.715 220.313,287.500 220.313 C 287.285 220.313,287.130 220.444,287.156 220.605 C 287.181 220.767,287.168 220.986,287.127 221.094 C 287.085 221.201,286.972 221.721,286.875 222.249 C 286.778 222.776,286.484 223.345,286.221 223.512 C 285.957 223.679,285.862 223.819,286.008 223.822 C 286.154 223.825,285.857 224.839,285.346 226.074 C 284.836 227.310,284.239 228.278,284.020 228.227 C 283.801 228.176,283.719 228.388,283.838 228.698 C 284.306 229.916,278.035 241.029,276.993 240.828 C 276.599 240.752,276.302 240.929,276.302 241.240 C 276.302 241.649,276.431 241.677,276.823 241.352 C 277.221 241.022,277.344 241.070,277.344 241.554 C 277.344 241.902,277.188 242.188,276.999 242.188 C 276.809 242.188,276.550 242.495,276.424 242.871 C 276.201 243.537,275.394 244.920,274.999 245.313 C 274.892 245.420,274.554 245.991,274.250 246.582 C 273.945 247.173,273.550 247.656,273.371 247.656 C 273.193 247.656,273.047 247.851,273.047 248.089 C 273.047 248.652,269.478 253.516,269.065 253.516 C 268.892 253.516,268.750 253.706,268.750 253.938 C 268.750 255.297,258.579 266.294,257.780 265.800 C 257.454 265.598,257.402 265.667,257.617 266.015 C 257.815 266.336,257.665 266.720,257.212 267.051 C 256.815 267.341,256.623 267.578,256.785 267.578 C 256.947 267.578,256.321 268.248,255.395 269.067 C 254.469 269.885,252.732 271.511,251.534 272.680 C 248.757 275.392,247.073 276.873,245.117 278.327 C 244.258 278.965,243.466 279.605,243.357 279.749 C 243.249 279.893,241.755 281.078,240.037 282.384 C 238.319 283.690,236.690 284.946,236.417 285.176 C 236.144 285.406,235.528 285.484,235.050 285.350 C 234.431 285.176,234.335 285.213,234.718 285.478 C 235.280 285.866,235.009 286.719,234.324 286.719 C 234.107 286.719,233.655 286.992,233.321 287.326 C 232.403 288.244,227.046 291.797,226.580 291.797 C 226.356 291.797,226.172 291.973,226.172 292.188 C 226.172 292.402,225.908 292.578,225.586 292.578 C 225.264 292.578,225.000 292.714,225.000 292.880 C 225.000 293.377,222.366 294.639,221.913 294.359 C 221.667 294.207,221.578 294.320,221.697 294.631 C 221.825 294.965,221.282 295.486,220.228 296.039 C 219.308 296.522,218.027 297.258,217.383 297.673 C 216.738 298.089,215.947 298.551,215.625 298.700 C 215.303 298.849,214.568 299.314,213.993 299.733 C 213.418 300.153,212.680 300.393,212.353 300.268 C 211.976 300.123,211.828 300.220,211.948 300.533 C 212.063 300.834,211.335 301.394,210.072 301.973 C 208.937 302.495,207.920 303.025,207.813 303.153 C 207.705 303.280,206.306 304.073,204.704 304.914 C 203.101 305.756,201.558 306.658,201.274 306.917 C 200.710 307.433,200.116 307.286,198.047 306.117 C 197.295 305.693,195.010 304.496,192.969 303.457 C 190.928 302.419,188.994 301.260,188.672 300.882 C 188.350 300.504,187.784 300.145,187.415 300.083 C 186.720 299.967,183.750 298.344,180.163 296.119 C 178.363 295.002,178.163 294.756,178.600 294.197 C 179.048 293.623,179.028 293.612,178.415 294.093 C 177.815 294.564,177.521 294.491,176.071 293.511 C 175.160 292.894,173.931 292.147,173.340 291.849 C 172.749 291.552,172.266 291.155,172.266 290.967 C 172.266 290.779,172.017 290.625,171.712 290.625 C 171.408 290.625,171.100 290.471,171.029 290.282 C 170.957 290.094,169.844 289.256,168.555 288.421 C 165.571 286.488,164.437 285.498,164.708 285.060 C 164.826 284.870,164.684 284.768,164.393 284.835 C 163.344 285.076,160.410 282.625,160.722 281.768 C 160.828 281.481,160.572 281.368,160.035 281.465 C 159.496 281.562,158.674 281.197,157.813 280.477 C 157.061 279.849,155.303 278.409,153.906 277.277 C 148.720 273.072,136.537 260.376,136.988 259.646 C 137.121 259.431,137.046 259.368,136.820 259.507 C 136.384 259.777,134.112 257.173,134.277 256.593 C 134.331 256.404,134.118 256.250,133.803 256.250 C 133.488 256.250,133.024 255.865,132.772 255.393 C 132.520 254.922,131.899 254.089,131.391 253.542 C 130.884 252.995,130.469 252.441,130.469 252.311 C 130.469 252.181,130.028 251.564,129.490 250.940 C 128.951 250.315,128.412 249.497,128.292 249.121 C 128.171 248.745,127.888 248.438,127.662 248.438 C 127.437 248.438,127.345 248.086,127.457 247.656 C 127.570 247.226,127.528 246.957,127.364 247.058 C 127.071 247.239,124.912 244.283,123.664 241.992 C 123.312 241.348,122.652 240.205,122.197 239.453 C 121.208 237.821,115.925 227.623,115.923 227.344 C 115.923 227.236,115.760 226.723,115.562 226.202 C 115.364 225.682,115.296 225.013,115.409 224.717 C 115.523 224.421,115.463 224.273,115.275 224.389 C 114.976 224.573,114.003 222.762,113.819 221.680 C 113.783 221.465,113.367 220.270,112.896 219.025 C 112.425 217.780,112.138 216.505,112.258 216.193 C 112.377 215.881,112.317 215.625,112.123 215.625 C 111.835 215.625,111.113 214.092,111.254 213.777 C 111.276 213.727,111.036 213.068,110.720 212.312 C 110.404 211.556,110.232 210.938,110.337 210.938 C 110.442 210.938,110.345 210.458,110.123 209.873 C 109.900 209.287,109.621 208.101,109.502 207.236 C 109.384 206.372,109.154 205.400,108.992 205.078 C 108.675 204.449,108.269 202.423,107.943 199.842 C 107.832 198.962,107.662 197.803,107.565 197.266 C 105.893 187.987,105.662 164.959,106.849 125.781 C 107.002 120.732,107.161 116.074,107.202 115.430 C 107.405 112.239,107.499 111.563,107.681 112.012 C 107.789 112.280,108.121 112.500,108.419 112.500 C 109.159 112.500,108.694 111.410,107.877 111.229 C 107.292 111.100,110.916 110.599,117.383 109.915 C 118.672 109.779,120.166 109.606,120.703 109.530 C 121.240 109.455,122.383 109.307,123.242 109.202 C 126.868 108.760,127.771 108.617,128.055 108.442 C 128.219 108.340,129.049 108.174,129.899 108.073 C 130.750 107.972,131.885 107.793,132.422 107.675 C 134.900 107.132,138.838 106.213,142.773 105.259 C 145.137 104.687,147.497 104.139,148.020 104.042 C 148.542 103.945,149.128 103.767,149.324 103.646 C 149.775 103.367,153.344 102.369,154.883 102.091 C 155.527 101.975,156.238 101.729,156.461 101.546 C 156.685 101.362,157.469 101.106,158.203 100.977 C 158.938 100.847,159.765 100.553,160.043 100.323 C 160.320 100.093,160.547 100.049,160.547 100.226 C 160.547 100.402,160.758 100.336,161.016 100.078 C 161.273 99.820,161.803 99.609,162.193 99.609 C 162.582 99.609,163.206 99.429,163.580 99.208 C 165.072 98.325,172.679 95.814,172.879 96.138 C 172.997 96.328,172.775 96.498,172.386 96.515 C 171.998 96.532,171.893 96.633,172.153 96.738 C 172.414 96.844,172.941 96.747,173.325 96.524 C 173.709 96.300,173.804 96.112,173.535 96.106 C 173.267 96.099,173.047 95.918,173.047 95.703 C 173.047 95.488,173.179 95.340,173.340 95.373 C 173.501 95.407,174.475 95.044,175.505 94.566 C 176.535 94.089,177.677 93.641,178.044 93.569 C 178.749 93.433,181.381 92.280,186.523 89.856 C 188.242 89.045,190.044 88.260,190.527 88.110 C 191.011 87.960,191.406 87.709,191.406 87.552 C 191.406 87.091,194.093 86.253,194.589 86.559 C 194.854 86.723,194.938 86.670,194.790 86.431 C 194.505 85.969,196.143 84.766,197.057 84.766 C 197.386 84.766,197.656 84.622,197.656 84.446 C 197.656 84.270,198.228 83.842,198.926 83.494 C 200.497 82.712,200.299 82.736,201.208 83.223 M144.843 140.682 C 144.564 140.859,143.714 141.006,142.954 141.010 C 139.936 141.023,134.056 143.989,131.678 146.697 C 130.976 147.497,130.269 147.969,130.012 147.811 C 129.755 147.652,129.673 147.708,129.819 147.944 C 129.958 148.168,129.625 149.150,129.079 150.126 C 126.901 154.023,125.908 157.219,125.573 161.410 C 125.451 162.934,125.347 185.903,125.449 188.867 C 125.456 189.082,125.433 191.631,125.398 194.531 C 125.363 197.432,125.455 200.705,125.602 201.805 C 125.779 203.137,125.721 203.897,125.428 204.079 C 125.186 204.228,125.092 204.520,125.220 204.727 C 125.860 205.762,126.126 207.488,125.616 207.292 C 125.054 207.077,124.950 209.064,125.494 209.609 C 125.652 209.767,125.779 210.174,125.775 210.514 C 125.770 211.058,125.719 211.062,125.355 210.547 C 125.080 210.159,124.987 210.136,125.078 210.479 C 125.336 211.453,125.977 210.743,125.898 209.570 L 125.819 208.398 126.259 209.375 C 128.093 213.443,128.496 214.559,128.267 214.930 C 128.110 215.184,128.186 215.243,128.455 215.076 C 128.703 214.923,128.906 214.971,128.906 215.183 C 128.906 215.396,129.130 215.801,129.403 216.085 C 130.703 217.437,131.606 218.881,131.380 219.247 C 131.242 219.470,131.290 219.553,131.487 219.431 C 131.683 219.310,132.545 219.709,133.403 220.318 C 134.260 220.928,135.972 221.923,137.207 222.529 C 138.442 223.135,139.453 223.774,139.453 223.948 C 139.453 224.122,139.639 224.150,139.866 224.010 C 140.093 223.869,140.752 223.884,141.331 224.043 L 142.383 224.331 141.406 224.627 L 140.430 224.922 141.471 224.961 C 142.044 224.982,142.572 224.857,142.643 224.683 C 142.715 224.509,144.523 224.497,146.660 224.658 C 148.798 224.818,150.666 224.876,150.811 224.786 C 150.956 224.697,151.892 224.525,152.891 224.405 C 154.773 224.180,159.107 222.520,160.187 221.612 C 160.526 221.327,160.922 221.094,161.066 221.094 C 161.210 221.094,161.661 220.786,162.068 220.410 C 162.475 220.034,163.223 219.362,163.729 218.916 C 168.001 215.151,170.703 208.053,170.703 200.594 L 170.703 196.942 163.574 197.076 C 159.653 197.149,156.270 197.223,156.055 197.240 C 155.826 197.257,155.655 198.770,155.642 200.881 C 155.611 206.116,153.414 210.097,150.862 209.542 C 150.142 209.385,149.971 209.429,150.326 209.680 C 150.727 209.963,150.637 210.104,149.935 210.292 C 148.260 210.741,145.387 210.566,144.801 209.980 C 144.489 209.668,144.135 209.511,144.014 209.632 C 143.538 210.108,141.423 208.096,140.561 206.345 L 139.648 204.492 139.648 183.195 L 139.648 161.898 140.903 159.350 C 142.521 156.063,143.999 155.180,147.792 155.235 C 149.671 155.263,150.525 155.440,150.790 155.859 C 150.993 156.182,151.163 156.304,151.166 156.130 C 151.185 155.138,153.684 157.497,154.599 159.371 C 155.506 161.229,155.651 162.017,155.657 165.129 L 155.664 168.735 163.035 168.704 C 169.937 168.676,170.418 168.627,170.600 167.931 C 170.707 167.522,171.081 167.185,171.432 167.182 C 171.990 167.176,171.997 167.123,171.484 166.761 C 171.043 166.449,171.019 166.298,171.387 166.149 C 171.655 166.040,171.872 165.658,171.869 165.299 C 171.864 164.759,171.803 164.744,171.509 165.207 C 171.110 165.838,170.887 164.800,170.505 160.547 C 170.153 156.629,167.437 149.219,166.353 149.219 C 166.167 149.219,166.016 149.019,166.016 148.774 C 166.016 148.530,165.393 147.798,164.631 147.148 C 163.870 146.497,163.323 145.766,163.417 145.523 C 163.510 145.280,163.226 145.055,162.785 145.021 C 162.345 144.988,161.881 144.796,161.754 144.595 C 161.627 144.394,160.645 143.743,159.570 143.149 C 158.496 142.555,157.488 141.876,157.330 141.640 C 157.124 141.332,157.042 141.336,157.037 141.654 C 157.033 141.966,156.560 141.934,155.430 141.544 C 152.721 140.611,145.839 140.050,144.843 140.682 M180.273 182.129 L 180.273 223.633 184.180 223.834 C 186.771 223.967,187.626 224.111,186.719 224.260 C 185.594 224.444,185.733 224.491,187.500 224.519 C 189.020 224.544,189.420 224.456,188.867 224.219 C 188.259 223.957,188.432 223.883,189.648 223.883 C 190.865 223.883,191.038 223.957,190.430 224.219 C 189.676 224.542,189.679 224.555,190.504 224.582 C 190.975 224.597,191.469 224.434,191.602 224.219 C 191.734 224.004,192.334 223.828,192.934 223.828 L 194.026 223.828 193.986 210.224 L 193.945 196.620 199.414 196.544 C 211.325 196.380,220.671 190.406,222.119 182.031 C 222.212 181.494,222.398 180.791,222.531 180.469 C 223.205 178.844,223.420 176.906,223.677 170.117 C 223.907 164.063,223.780 162.574,222.596 157.422 C 222.521 157.096,222.690 156.884,222.978 156.943 C 223.263 157.002,223.382 156.868,223.244 156.644 C 223.106 156.420,222.850 156.326,222.675 156.434 C 222.165 156.749,221.389 154.442,221.670 153.447 C 221.834 152.865,221.801 152.718,221.578 153.038 C 221.328 153.397,220.941 153.006,220.204 151.652 C 219.640 150.616,218.510 149.087,217.695 148.255 C 216.879 147.423,215.904 146.289,215.530 145.735 C 215.155 145.180,214.848 144.974,214.846 145.275 C 214.844 145.727,214.723 145.718,214.160 145.224 C 210.798 142.272,207.353 141.483,197.464 141.400 C 193.051 141.364,190.637 141.192,190.260 140.887 C 189.820 140.531,189.759 140.538,189.987 140.918 C 190.215 141.298,189.234 141.406,185.570 141.406 C 182.690 141.406,180.859 141.254,180.859 141.016 C 180.859 140.801,180.728 140.625,180.566 140.625 C 180.405 140.625,180.273 159.302,180.273 182.129 M232.010 143.555 C 231.991 145.273,231.915 148.877,231.841 151.563 C 231.711 156.222,231.657 169.159,231.742 175.391 C 231.778 178.032,231.748 179.688,231.589 183.984 C 231.561 184.736,231.529 185.615,231.518 185.938 C 231.507 186.260,231.637 186.941,231.807 187.451 C 232.048 188.178,232.000 188.310,231.585 188.060 C 231.157 187.802,231.147 187.854,231.530 188.328 C 232.124 189.063,232.261 221.875,231.669 221.875 C 230.933 221.875,231.432 223.468,232.230 223.669 C 232.677 223.781,235.802 223.819,239.176 223.753 L 245.309 223.633 245.353 200.000 C 245.391 179.268,245.464 176.555,245.942 177.896 C 246.242 178.736,246.400 179.511,246.294 179.617 C 246.188 179.724,246.252 180.003,246.437 180.237 C 246.622 180.472,246.991 181.340,247.257 182.167 C 247.524 182.993,247.972 184.114,248.254 184.657 C 248.840 185.786,248.291 186.768,247.268 186.422 C 246.930 186.308,247.013 186.490,247.461 186.849 C 248.485 187.670,248.853 187.659,248.591 186.816 C 248.017 184.970,249.224 187.534,249.964 189.734 C 250.858 192.390,250.977 193.089,250.384 192.188 C 250.079 191.725,250.024 191.787,250.121 192.486 C 250.189 192.972,250.464 193.587,250.732 193.853 C 251.119 194.238,251.163 194.177,250.947 193.555 L 250.676 192.773 251.302 193.555 C 251.647 193.984,251.934 194.559,251.941 194.832 C 251.948 195.105,252.363 196.336,252.863 197.568 C 253.364 198.799,253.892 200.334,254.038 200.978 L 254.303 202.148 253.698 201.172 L 253.092 200.195 253.351 201.172 C 253.737 202.627,254.266 203.501,254.297 202.734 C 254.315 202.282,254.415 202.310,254.732 202.856 C 254.958 203.245,255.043 203.825,254.920 204.146 C 254.797 204.466,254.856 204.630,255.050 204.509 C 255.245 204.389,255.708 205.215,256.079 206.345 C 256.450 207.474,257.445 210.156,258.290 212.305 C 259.134 214.453,259.874 216.387,259.933 216.602 C 259.992 216.816,260.222 217.432,260.444 217.969 C 260.688 218.558,260.707 219.120,260.493 219.386 C 260.280 219.651,260.294 220.234,260.529 220.851 C 260.961 221.988,261.426 222.269,261.091 221.191 C 260.929 220.669,260.997 220.692,261.381 221.289 C 261.658 221.719,261.923 222.316,261.971 222.617 C 262.137 223.663,263.124 223.816,269.727 223.822 L 276.367 223.828 276.274 182.520 C 276.192 145.938,276.114 141.215,275.591 141.243 C 275.266 141.261,272.144 141.308,268.652 141.347 C 265.161 141.386,262.530 141.561,262.805 141.735 C 263.436 142.136,263.133 184.961,262.498 184.961 C 262.224 184.961,262.360 187.218,262.644 187.394 C 262.846 187.519,262.893 187.430,262.749 187.197 C 262.605 186.964,262.645 186.675,262.838 186.556 C 263.031 186.436,263.199 187.036,263.211 187.888 C 263.228 189.163,263.139 189.353,262.708 188.957 C 262.420 188.693,262.200 188.389,262.219 188.281 C 262.239 188.174,261.958 187.405,261.596 186.573 C 261.234 185.741,260.938 184.830,260.938 184.548 C 260.938 184.266,260.733 183.540,260.482 182.936 C 260.231 182.331,259.997 181.748,259.961 181.641 C 259.925 181.533,259.680 180.923,259.417 180.285 C 259.154 179.647,259.020 178.812,259.120 178.429 C 259.220 178.046,259.157 177.823,258.980 177.932 C 258.803 178.042,258.352 177.207,257.978 176.077 C 257.604 174.948,257.060 173.453,256.769 172.756 C 256.479 172.059,256.228 171.355,256.212 171.193 C 256.197 171.031,256.014 170.694,255.807 170.445 C 255.563 170.151,255.575 169.902,255.840 169.738 C 256.066 169.599,256.247 169.276,256.244 169.020 C 256.240 168.709,256.127 168.730,255.902 169.085 C 255.483 169.747,255.385 169.571,254.301 166.211 C 253.816 164.707,253.265 163.310,253.077 163.105 C 252.888 162.901,252.734 162.492,252.734 162.196 C 252.734 161.899,252.316 160.572,251.804 159.246 C 250.788 156.615,250.349 155.380,250.324 155.078 C 250.314 154.971,249.998 154.268,249.620 153.516 C 249.243 152.764,248.722 151.445,248.463 150.586 C 247.992 149.021,247.848 148.641,246.763 146.094 C 246.129 144.606,245.607 143.065,245.466 142.266 C 245.307 141.370,244.459 140.625,243.605 140.631 C 242.919 140.636,242.876 140.706,243.359 141.029 C 243.762 141.299,242.172 141.392,238.281 141.327 C 234.963 141.271,232.498 141.066,232.330 140.831 C 232.172 140.610,232.028 141.836,232.010 143.555 M94.031 147.770 C 93.895 148.123,93.964 148.524,94.184 148.659 C 94.748 149.008,94.868 148.753,94.551 147.880 C 94.310 147.218,94.247 147.205,94.031 147.770 M179.388 150.000 C 179.388 150.752,179.468 151.060,179.566 150.684 C 179.664 150.308,179.664 149.692,179.566 149.316 C 179.468 148.940,179.388 149.248,179.388 150.000 M94.113 150.391 C 93.854 151.678,94.276 154.071,94.560 152.930 C 94.667 152.500,94.655 151.533,94.532 150.781 C 94.331 149.552,94.289 149.512,94.113 150.391 M93.998 154.211 C 93.890 154.386,93.941 154.756,94.112 155.032 C 94.355 155.424,94.473 155.402,94.655 154.928 C 94.901 154.287,94.334 153.669,93.998 154.211 M293.909 161.328 C 293.909 164.873,293.968 166.323,294.041 164.551 C 294.113 162.778,294.113 159.878,294.041 158.105 C 293.968 156.333,293.909 157.783,293.909 161.328 M198.443 155.957 C 198.448 156.333,198.523 156.329,198.771 155.938 C 199.128 155.375,203.189 155.839,204.624 156.607 C 209.745 159.347,210.347 176.449,205.474 180.750 C 204.271 181.812,202.163 182.568,201.146 182.302 C 200.731 182.193,200.293 182.264,200.173 182.459 C 200.052 182.653,198.602 182.812,196.950 182.812 L 193.945 182.812 193.945 169.141 L 193.945 155.469 196.191 155.469 C 197.725 155.469,198.439 155.624,198.443 155.957 M94.269 158.789 C 94.271 160.293,94.341 160.860,94.426 160.050 C 94.510 159.239,94.509 158.009,94.423 157.316 C 94.336 156.622,94.267 157.285,94.269 158.789 M125.285 156.486 C 125.128 156.643,125.011 157.225,125.025 157.780 L 125.050 158.789 125.427 157.846 C 125.833 156.830,125.749 156.022,125.285 156.486 M94.034 162.215 C 93.929 162.487,93.977 163.410,94.140 164.265 C 94.434 165.808,94.436 165.805,94.433 163.770 C 94.429 161.647,94.358 161.370,94.034 162.215 M93.998 169.006 C 94.091 172.880,94.531 173.225,94.531 169.424 C 94.531 167.790,94.395 166.368,94.230 166.266 C 94.064 166.163,93.959 167.396,93.998 169.006 M293.841 169.531 C 293.841 170.283,293.921 170.591,294.019 170.215 C 294.118 169.839,294.118 169.224,294.019 168.848 C 293.921 168.472,293.841 168.779,293.841 169.531 M94.004 175.628 C 94.129 179.148,94.531 179.315,94.531 175.846 C 94.531 174.307,94.392 173.047,94.222 173.047 C 94.052 173.047,93.953 174.209,94.004 175.628 M194.531 181.836 C 194.531 182.237,194.932 182.421,195.801 182.419 L 197.070 182.417 195.951 181.834 C 194.570 181.113,194.531 181.113,194.531 181.836 M199.609 181.911 C 198.930 182.258,198.834 182.412,199.293 182.416 C 199.657 182.419,200.048 182.270,200.163 182.084 C 200.278 181.898,200.842 181.835,201.416 181.945 C 202.105 182.077,202.371 182.001,202.199 181.722 C 201.871 181.191,200.873 181.264,199.609 181.911 M246.875 184.766 C 246.875 184.980,247.095 185.159,247.363 185.162 C 247.689 185.166,247.656 185.294,247.266 185.547 C 246.765 185.870,246.779 185.926,247.363 185.932 C 247.788 185.935,248.047 185.642,248.047 185.156 C 248.047 184.722,247.786 184.375,247.461 184.375 C 247.139 184.375,246.875 184.551,246.875 184.766 M93.859 185.960 C 93.891 186.377,94.055 186.719,94.224 186.719 C 94.393 186.719,94.531 187.070,94.531 187.500 C 94.531 187.930,94.355 188.281,94.141 188.281 C 93.926 188.281,93.750 188.467,93.750 188.695 C 93.750 188.922,93.914 189.007,94.115 188.883 C 94.316 188.759,94.552 189.232,94.639 189.934 C 94.726 190.636,94.825 189.955,94.859 188.421 C 94.907 186.315,94.784 185.578,94.362 185.416 C 93.985 185.271,93.821 185.449,93.859 185.960 M305.958 188.086 C 305.962 188.945,306.042 189.251,306.136 188.765 C 306.229 188.279,306.226 187.576,306.128 187.202 C 306.030 186.829,305.954 187.227,305.958 188.086 M146.339 209.847 C 146.607 210.280,147.656 210.235,147.656 209.790 C 147.656 209.588,147.317 209.449,146.902 209.480 C 146.487 209.512,146.234 209.676,146.339 209.847 M285.567 222.814 C 285.291 223.329,285.160 223.988,285.275 224.278 C 285.403 224.597,285.497 224.489,285.516 224.004 C 285.533 223.563,285.755 222.995,286.009 222.741 C 286.263 222.487,286.381 222.188,286.270 222.077 C 286.159 221.967,285.843 222.298,285.567 222.814 M267.969 224.531 C 267.969 224.703,268.584 224.771,269.336 224.684 C 270.088 224.596,270.703 224.455,270.703 224.371 C 270.703 224.287,270.088 224.219,269.336 224.219 C 268.584 224.219,267.969 224.359,267.969 224.531 M271.094 224.531 C 271.094 224.703,271.753 224.780,272.559 224.704 C 275.071 224.465,275.275 224.311,273.145 224.264 C 272.017 224.239,271.094 224.359,271.094 224.531 M103.125 228.759 C 103.125 229.278,103.231 229.305,103.711 228.906 C 104.033 228.639,104.297 228.354,104.297 228.272 C 104.297 228.191,104.033 228.125,103.711 228.125 C 103.389 228.125,103.125 228.410,103.125 228.759 M103.920 229.199 C 103.928 229.360,104.204 229.932,104.533 230.469 C 104.863 231.006,105.032 231.123,104.910 230.730 C 104.788 230.336,104.688 229.765,104.688 229.460 C 104.688 229.156,104.512 228.906,104.297 228.906 C 104.082 228.906,103.912 229.038,103.920 229.199 M112.720 246.995 C 112.860 247.358,113.118 247.656,113.294 247.656 C 113.471 247.656,113.695 247.964,113.793 248.340 C 113.938 248.895,113.980 248.907,114.017 248.400 C 114.042 248.058,113.703 247.452,113.264 247.055 C 112.565 246.422,112.498 246.415,112.720 246.995 M250.110 272.543 C 249.797 273.359,250.118 273.412,250.879 272.671 C 251.478 272.087,251.486 272.005,250.939 272.005 C 250.596 272.005,250.223 272.247,250.110 272.543 M238.672 282.003 C 238.672 282.202,238.364 282.426,237.988 282.500 C 237.602 282.577,237.479 282.746,237.706 282.889 C 237.927 283.028,238.542 282.808,239.073 282.400 C 239.857 281.798,239.910 281.656,239.355 281.649 C 238.979 281.645,238.672 281.804,238.672 282.003 M225.000 290.946 C 225.000 291.331,226.865 291.475,227.091 291.107 C 227.188 290.949,226.757 290.783,226.134 290.738 C 225.510 290.693,225.000 290.787,225.000 290.946 M203.488 303.855 C 203.703 304.256,203.841 304.652,203.795 304.734 C 203.749 304.816,203.788 304.835,203.882 304.777 C 204.316 304.509,204.106 303.125,203.632 303.125 C 203.231 303.125,203.195 303.307,203.488 303.855 " stroke="none" fill="#000000" fill-rule="evenodd"></path></g></svg>